<svg width="21" height="21" viewBox="0 0 21 21" fill="none" xmlns="http://www.w3.org/2000/svg">
    <path
        d="M11 8C10.7167 8 10.4793 7.904 10.288 7.712C10.096 7.52067 10 7.28333 10 7V5H8C7.71667 5 7.47933 4.90433 7.288 4.713C7.096 4.521 7 4.28333 7 4C7 3.71667 7.096 3.479 7.288 3.287C7.47933 3.09567 7.71667 3 8 3H10V1C10 0.716667 10.096 0.479 10.288 0.287C10.4793 0.0956666 10.7167 0 11 0C11.2833 0 11.521 0.0956666 11.713 0.287C11.9043 0.479 12 0.716667 12 1V3H14C14.2833 3 14.521 3.09567 14.713 3.287C14.9043 3.479 15 3.71667 15 4C15 4.28333 14.9043 4.521 14.713 4.713C14.521 4.90433 14.2833 5 14 5H12V7C12 7.28333 11.9043 7.52067 11.713 7.712C11.521 7.904 11.2833 8 11 8ZM6 21C5.45 21 4.97933 20.8043 4.588 20.413C4.196 20.021 4 19.55 4 19C4 18.45 4.196 17.979 4.588 17.587C4.97933 17.1957 5.45 17 6 17C6.55 17 7.02067 17.1957 7.412 17.587C7.804 17.979 8 18.45 8 19C8 19.55 7.804 20.021 7.412 20.413C7.02067 20.8043 6.55 21 6 21ZM16 21C15.45 21 14.9793 20.8043 14.588 20.413C14.196 20.021 14 19.55 14 19C14 18.45 14.196 17.979 14.588 17.587C14.9793 17.1957 15.45 17 16 17C16.55 17 17.021 17.1957 17.413 17.587C17.8043 17.979 18 18.45 18 19C18 19.55 17.8043 20.021 17.413 20.413C17.021 20.8043 16.55 21 16 21ZM6 16C5.23333 16 4.65433 15.6707 4.263 15.012C3.871 14.354 3.86667 13.7 4.25 13.05L5.6 10.6L2 3H1C0.716667 3 0.479333 2.904 0.288 2.712C0.096 2.52067 0 2.28333 0 2C0 1.71667 0.096 1.479 0.288 1.287C0.479333 1.09567 0.716667 1 1 1H2.65C2.83333 1 3.00833 1.05 3.175 1.15C3.34167 1.25 3.46667 1.39167 3.55 1.575L7.525 10H14.55L18.15 3.5C18.2333 3.35 18.35 3.229 18.5 3.137C18.65 3.04567 18.8167 3 19 3C19.3833 3 19.671 3.16233 19.863 3.487C20.0543 3.81233 20.0583 4.14167 19.875 4.475L16.3 10.95C16.1167 11.2833 15.8707 11.5417 15.562 11.725C15.254 11.9083 14.9167 12 14.55 12H7.1L6 14H17C17.2833 14 17.5207 14.0957 17.712 14.287C17.904 14.479 18 14.7167 18 15C18 15.2833 17.904 15.5207 17.712 15.712C17.5207 15.904 17.2833 16 17 16H6Z"
        fill="black" />
</svg>