<svg width="200" height="200" viewBox="0 0 200 200" fill="none" xmlns="http://www.w3.org/2000/svg">
    <path
        d="M37.6437 38.2049C56.1311 33.7475 71.1122 44.1535 79.3997 51.5826C80.0007 40.4759 83.4567 22.7653 99.6846 12.8593C114.56 23.6658 119.068 36.8738 119.519 51.5826C127.806 44.1535 143.238 33.7475 161.725 38.2049C164.594 56.3531 158.127 68.7802 148.033 79.4993C162.759 79.9496 175.982 84.4523 186.8 99.3112C176.883 115.521 159.152 118.973 148.033 119.573C158.127 130.292 164.71 142.366 161.841 160.514C143.354 164.971 127.922 154.565 119.634 147.136C119.184 161.845 114.676 175.053 99.8002 185.859C83.5722 175.953 80.1163 158.566 79.5152 147.46C71.2278 154.889 56.2467 164.971 37.7593 160.514C34.8906 142.366 41.4733 130.292 51.567 119.573C40.4478 118.973 22.7173 115.521 12.8002 99.3112C23.6188 84.4523 36.8416 79.9496 51.567 79.4993C41.4733 68.7802 34.775 56.3531 37.6437 38.2049Z"
        fill="url(#paint0_radial_74_305)" />
    <path
        d="M80.1853 28.903C95.5137 33.423 102.039 47.2985 104.945 56.1927C110.054 48.3537 120.018 36.9029 135.994 36.5042C142.274 50.627 139.999 62.1434 134.14 73.0486C143.296 71.1182 158.903 70.0207 170.481 81.0355C164.936 95.4624 155.002 101.799 143.148 105.367C153.675 111.882 161.403 120.718 163.026 136.089C148.991 143.731 134.636 138.797 126.292 134.562C129.129 146.613 128.841 158.174 119.12 170.19C103.792 165.67 96.9386 151.605 94.0325 142.711C87.5177 153.238 78.6818 160.966 63.3112 162.589C55.6685 148.554 60.4668 134.435 64.7011 126.091C55.5454 128.021 40.4026 129.072 28.824 118.058C34.3698 103.631 44.2384 97.6009 56.0924 94.0325C48.2533 88.9234 36.8025 78.9591 36.4038 62.9831C50.5267 56.7033 62.043 58.9784 72.9483 64.8372C70.1116 52.7872 70.4642 40.9193 80.1853 28.903Z"
        fill="url(#paint1_radial_74_305)" />
    <path
        d="M70.6872 50.1947C83.1666 50.5061 90.8952 59.6562 94.886 65.7796C97.1561 58.832 102.359 48.1775 114.333 44.6468C121.927 54.0332 122.538 63.1825 120.322 72.5953C126.84 69.2877 138.394 65.3043 149.357 71.2743C148.09 83.2809 141.876 90.0701 133.653 95.1591C142.913 97.9465 150.53 103.051 154.863 114.32C145.818 122.924 133.989 122.103 126.837 120.595C131.414 129.114 133.534 137.895 128.629 148.927C116.149 148.616 108.135 139.389 104.144 133.266C101.357 142.525 96.2524 150.143 84.9831 154.475C76.379 145.431 77.145 133.808 78.6529 126.656C72.135 129.963 60.9219 133.818 49.9587 127.848C51.2264 115.841 57.4534 109.296 65.676 104.207C58.7283 101.937 48.0739 96.7339 44.5432 84.7603C53.9296 77.1668 63.0789 76.5551 72.4916 78.7709C67.9151 70.2524 65.7818 61.2266 70.6872 50.1947Z"
        fill="url(#paint2_radial_74_305)" />
    <path
        d="M95.508 56.0442C104.048 60.2779 106.453 69.1016 107.245 74.6262C111.054 70.5467 118.087 64.8451 127.514 66.2556C129.749 75.1994 127.227 81.7311 122.662 87.5349C128.24 87.3434 137.522 88.3053 143.191 95.9686C138.447 103.874 131.959 106.574 124.627 107.45C130.141 112.361 133.772 118.348 133.143 127.545C124.111 130.591 116.185 126.214 111.719 122.867C112.145 130.239 110.785 137.001 103.837 143.06C95.2967 138.827 92.7184 129.858 91.9268 124.333C87.0155 129.847 81.0287 133.478 71.8312 132.849C68.7859 123.816 73.0586 116.015 76.4053 111.549C70.8275 111.741 61.8227 110.799 56.1541 103.136C60.8976 95.2309 67.3163 92.7042 74.648 91.8281C70.5684 88.0194 64.8668 80.9864 66.2773 71.5593C75.2211 69.3238 81.7529 71.8461 87.5567 76.4109C87.1307 69.0393 88.5596 62.1031 95.508 56.0442Z"
        fill="url(#paint3_radial_74_305)" />
    <path
        d="M110.525 68.6508C115.003 74.2139 113.866 80.9711 112.668 84.9774C116.541 83.3995 123.116 81.7316 129.084 85.6533C127.794 92.4388 124.026 96.0888 119.098 98.6018C122.952 100.224 128.963 103.795 130.41 110.789C124.7 114.675 119.439 114.472 114.177 112.764C116.384 117.837 116.972 123.05 113.654 129.108C106.554 128.341 102.538 122.874 100.552 119.194C98.5256 124.342 95.476 128.514 88.8462 130.452C84.3679 124.889 85.4326 117.978 86.6302 113.972C81.5572 116.179 76.3443 116.767 70.2863 113.449C71.0534 106.349 76.4108 102.386 80.0905 100.4C76.2366 98.777 70.4079 95.3071 68.9605 88.3137C74.6708 84.4277 79.8304 84.7262 85.0923 86.4341C83.5144 82.5618 81.8465 75.9866 85.7681 70.0181C92.5537 71.308 96.2037 75.0761 98.7167 80.0045C100.743 74.8569 103.895 70.5883 110.525 68.6508Z"
        fill="url(#paint4_radial_74_305)" />
    <defs>
        <radialGradient id="paint0_radial_74_305" cx="0" cy="0" r="1" gradientUnits="userSpaceOnUse"
            gradientTransform="translate(99.8002 99.3593) rotate(90) scale(86.5 87)">
            <stop offset="0.729167" stop-color="#2A9D8F" />
            <stop offset="1" stop-color="#F8F4E4" />
        </radialGradient>
        <radialGradient id="paint1_radial_74_305" cx="0" cy="0" r="1" gradientUnits="userSpaceOnUse"
            gradientTransform="translate(99.6947 99.5709) rotate(120) scale(72.7671 73.1054)">
            <stop offset="0.614583" stop-color="#AB71E4" />
            <stop offset="1" stop-color="#FFBABA" />
        </radialGradient>
        <radialGradient id="paint2_radial_74_305" cx="0" cy="0" r="1" gradientUnits="userSpaceOnUse"
            gradientTransform="translate(99.6947 99.5708) rotate(105) scale(56.8412 57.1055)">
            <stop offset="0.729167" stop-color="#2A9D8F" />
            <stop offset="1" stop-color="#F8F4E4" />
        </radialGradient>
        <radialGradient id="paint3_radial_74_305" cx="0" cy="0" r="1" gradientUnits="userSpaceOnUse"
            gradientTransform="translate(99.6947 99.5709) rotate(129.939) scale(43.4028 43.6046)">
            <stop offset="0.614583" stop-color="#AB71E4" />
            <stop offset="1" stop-color="#FFBABA" />
        </radialGradient>
        <radialGradient id="paint4_radial_74_305" cx="0" cy="0" r="1" gradientUnits="userSpaceOnUse"
            gradientTransform="translate(99.6946 99.5708) rotate(154.736) scale(32.5186 32.6698)">
            <stop offset="0.260417" stop-color="#E96A6A" />
            <stop offset="0.53125" stop-color="#2A9D8F" />
            <stop offset="0.713542" stop-color="#77C8BE" />
            <stop offset="1" stop-color="#F8F4E4" />
        </radialGradient>
    </defs>
</svg>